<svg xmlns="http://www.w3.org/2000/svg" viewBox="0 0 448 512"><!--!Font Awesome Pro 6.7.2 by @fontawesome - https://fontawesome.com License - https://fontawesome.com/license (Commercial License) Copyright 2025 Fonticons, Inc.--><path d="M431.9 116.1L239.9 4.3a31.5 31.5 0 0 0 -31.8 0l-192 111.8C6.2 121.9 0 132.8 0 144.5v223.1c0 11.7 6.2 22.5 16.1 28.3l192 111.8a31.5 31.5 0 0 0 31.8 0l192-111.8c10-5.8 16.1-16.6 16.1-28.3V144.5c0-11.7-6.2-22.5-16.1-28.3zM224 57.6L318.7 176H129.3L224 57.6zM124.6 208h198.8L224 369.5 124.6 208zm68.3 172L55.9 362.9l44.4-133.3 92.6 150.4zm154.8-150.4l44.4 133.3-137 17.1 92.6-150.4zm7.2-59.7L262.7 54.7l138 80.8-45.9 34.4zm-261.6 0l-46.2-34.7 138.5-80.7-92.3 115.4zm-16 28l-45.1 135.4 .2-169.1 45 33.7zM208 414.1v56.4L85.4 398.8 208 414.1zm155.6-15.5L240 470.8v-56.7l123.6-15.5zm7.2-200.8l45.2-33.9-.2 168.8-45-134.9zM224.1 480h.2l-.1 .1-.1-.1z"/></svg>