<svg xmlns="http://www.w3.org/2000/svg" viewBox="0 0 448 512"><!--!Font Awesome Pro 6.7.2 by @fontawesome - https://fontawesome.com License - https://fontawesome.com/license (Commercial License) Copyright 2025 Fonticons, Inc.--><path d="M431.9 116.1L239.9 4.3a31.5 31.5 0 0 0 -31.8 0l-192 111.8C6.2 121.9 0 132.8 0 144.5v223.1c0 11.7 6.2 22.5 16.1 28.3l192 111.8a31.5 31.5 0 0 0 31.8 0l192-111.8c10-5.8 16.1-16.6 16.1-28.3V144.5c0-11.7-6.2-22.5-16.1-28.3zM224 32.1l175.8 102.9L224 237.5 47.8 134.7 224 32.1zM32.2 162.7L208 265.2v205.4L32 367.5l.2-204.9zM240 470.8V265.2l176-102.6-.2 205.7L240 470.8z"/></svg>