<svg xmlns="http://www.w3.org/2000/svg" viewBox="0 0 512 512"><!--!Font Awesome Pro 6.7.2 by @fontawesome - https://fontawesome.com License - https://fontawesome.com/license (Commercial License) Copyright 2025 Fonticons, Inc.--><path d="M505.2 178.5l-47.7-95.4a64 64 0 0 0 -28.6-28.6l-95.4-47.7A63.9 63.9 0 0 0 304.9 0h-97.8c-9.9 0-19.7 2.3-28.6 6.8l-95.4 47.7a64 64 0 0 0 -28.6 28.6l-47.7 95.4A63.9 63.9 0 0 0 0 207.1v97.8c0 9.9 2.3 19.7 6.8 28.6l47.7 95.4a64 64 0 0 0 28.6 28.6l95.4 47.7a64.1 64.1 0 0 0 28.6 6.8h97.8c9.9 0 19.7-2.3 28.6-6.8l95.4-47.7a64 64 0 0 0 28.6-28.6l47.7-95.4a64.1 64.1 0 0 0 6.8-28.6v-97.8c0-9.9-2.3-19.7-6.8-28.6zm-29.6 12.4l-95.6 109.2L272 246.1V140.2l156.9-42.8 46.8 93.5zM308.8 480H203.2l-55.3-152.1L256 273.9l108.1 54.1L308.8 480zM199.6 32h112.9l82.9 41.4L256 111.4 116.7 73.4 199.6 32zM83.1 97.4L240 140.2V246.1l-108.1 54.1-95.6-109.2 46.8-93.5zM32 312.5v-77.9l82 93.7 48.4 133.2-74.6-37.3L32 312.5zm392.2 111.7l-74.6 37.3 48.4-133.2 82-93.7v77.9l-55.9 111.7z"/></svg>