<svg xmlns="http://www.w3.org/2000/svg" viewBox="0 0 512 512"><!--!Font Awesome Pro 6.7.2 by @fontawesome - https://fontawesome.com License - https://fontawesome.com/license (Commercial License) Copyright 2025 Fonticons, Inc.--><path d="M504.9 289L280.8 11.9C274.5 4 265.2 0 256 0s-18.5 4-24.9 11.9L7.1 289c-11.3 14-8.8 34.6 5.5 45.5l224.1 170.9c5.7 4.4 12.6 6.6 19.4 6.6s13.7-2.2 19.4-6.6l224.1-170.9c14.3-10.9 16.8-31.5 5.5-45.5zM32 309.1L240 51.8v416L32 309.1zM256 480h0l0 0 0 0zM272 467.8v-416l208 257.3L272 467.8z"/></svg>